<svg id="chats" width="14" height="14" viewBox="0 0 14 14" fill="none" xmlns="http://www.w3.org/2000/svg">
<path d="M10.6562 4V2.65625H2.65625V4H10.6562ZM8 8V6.65625H2.65625V8H8ZM2.65625 4.65625V6H10.6562V4.65625H2.65625ZM12 0C12.3541 0 12.6562 0.135417 12.9062 0.40625C13.177 0.65625 13.3125 0.95833 13.3125 1.3125V9.3125C13.3125 9.66665 13.177 9.97915 12.9062 10.25C12.6562 10.5208 12.3541 10.6562 12 10.6562H2.65625L0 13.3125V1.3125C0 0.95833 0.125 0.65625 0.375 0.40625C0.645833 0.135417 0.95833 0 1.3125 0H12Z" fill="white"/>
</svg>
